<svg width="44" height="38" viewBox="0 0 44 38" fill="none" xmlns="http://www.w3.org/2000/svg">
<g clip-path="url(#clip0_4065_44228)">
<path d="M32.7187 12.6593V2.47412C32.7262 1.82659 32.4795 1.20246 32.0327 0.738648C31.5858 0.274832 30.9753 0.00919426 30.335 0L2.3838 0C1.74355 0.00919426 1.13305 0.274832 0.686195 0.738648C0.239343 1.20246 -0.00737118 1.82659 0.000167835 2.47412V35.5259C-0.00737118 36.1734 0.239343 36.7975 0.686195 37.2614C1.13305 37.7252 1.74355 37.9908 2.3838 38H30.3633C31.0035 37.9908 31.614 37.7252 32.0609 37.2614C32.5077 36.7975 32.7544 36.1734 32.7469 35.5259V30.7362C32.743 30.6916 32.754 30.6469 32.7783 30.6093L43.9092 15.0668C44.0974 14.813 44.0096 13.5411 43.6959 13.5411L32.8034 13.522C32.6716 13.5474 32.7187 10.6673 32.7187 12.6593Z" fill="black"/>
<path d="M24.7176 26.0354V29.3818C24.727 29.5793 24.6588 29.7726 24.5277 29.9194C24.3967 30.0662 24.2135 30.1546 24.0182 30.1653H7.84089C7.64562 30.1546 7.46246 30.0662 7.33141 29.9194C7.20036 29.7726 7.13208 29.5793 7.14148 29.3818V26.6C7.14079 26.418 7.19919 26.2408 7.30771 26.0956L16.2087 14.3309C16.2969 14.2208 16.3539 14.0885 16.3734 13.9481C16.3929 13.8078 16.3742 13.6647 16.3194 13.5343C16.2646 13.4039 16.1757 13.291 16.0623 13.2078C15.9488 13.1246 15.8151 13.0742 15.6755 13.0621H8.09493C7.99834 13.0552 7.90402 13.0292 7.81738 12.9855C7.73073 12.9418 7.65345 12.8812 7.58995 12.8073C7.52646 12.7333 7.47799 12.6475 7.44732 12.5546C7.41665 12.4617 7.40438 12.3636 7.41121 12.2659V8.91C7.4017 8.71536 7.46794 8.52469 7.59574 8.37884C7.72354 8.23299 7.90273 8.14356 8.09493 8.1297H23.6889C23.7857 8.13257 23.881 8.15471 23.9694 8.19485C24.0577 8.23499 24.1373 8.29234 24.2038 8.36363C24.2702 8.43492 24.322 8.51875 24.3564 8.61032C24.3908 8.70189 24.4069 8.79941 24.404 8.89731V11.695C24.4031 11.8767 24.3449 12.0534 24.2378 12.1993L15.3337 23.9673C14.951 24.4748 15.2741 25.2551 15.8668 25.2551H24.0214C24.2158 25.2657 24.3982 25.3538 24.5286 25.5C24.6591 25.6462 24.727 25.8387 24.7176 26.0354Z" fill="white"/>
</g>
<defs>
<clipPath id="clip0_4065_44228">
<rect width="44" height="38" fill="white"/>
</clipPath>
</defs>
</svg>
