<svg width="24" height="24" viewBox="0 0 24 24" fill="none" xmlns="http://www.w3.org/2000/svg">
<path d="M5.62965 7.97979L6.35331 8.1768V8.1768L5.62965 7.97979ZM10.0356 3.3825L9.80532 2.66873V2.66873L10.0356 3.3825ZM5.58183 8.15544L4.85817 7.95844L4.85817 7.95844L5.58183 8.15544ZM5.37553 12.4757L6.11467 12.3485L6.11467 12.3485L5.37553 12.4757ZM5.39954 12.6152L4.66039 12.7424L4.66039 12.7424L5.39954 12.6152ZM5.90676 17.3483L6.0558 16.6133H6.0558L5.90676 17.3483ZM6.29886 17.4278L6.14982 18.1629H6.14983L6.29886 17.4278ZM17.7011 17.4278L17.8502 18.1629L17.7011 17.4278ZM18.0932 17.3483L17.9442 16.6133H17.9442L18.0932 17.3483ZM18.6051 12.5885L19.3442 12.7156V12.7156L18.6051 12.5885ZM18.6305 12.4405L17.8914 12.3133L17.8914 12.3133L18.6305 12.4405ZM18.4445 8.18538L17.7193 8.37656V8.37656L18.4445 8.18538ZM18.3779 7.93282L19.1031 7.74165V7.74165L18.3779 7.93282ZM14.0982 3.38903L14.3324 2.67653L14.0982 3.38903ZM18.7765 12.9357L18.4116 13.591L18.7765 12.9357ZM5.24583 12.9234L5.6037 13.5825L5.24583 12.9234ZM12.75 2C12.75 1.58579 12.4142 1.25 12 1.25C11.5858 1.25 11.25 1.58579 11.25 2H12.75ZM11.25 3.06667C11.25 3.48089 11.5858 3.81667 12 3.81667C12.4142 3.81667 12.75 3.48089 12.75 3.06667H11.25ZM8.89311 17.0767C8.48146 17.0307 8.11042 17.327 8.06436 17.7387C8.0183 18.1503 8.31466 18.5214 8.72631 18.5674L8.89311 17.0767ZM15.2737 18.5674C15.6853 18.5214 15.9817 18.1503 15.9356 17.7387C15.8896 17.327 15.5185 17.0307 15.1069 17.0767L15.2737 18.5674ZM6.35331 8.1768C6.8772 6.25241 8.36186 4.71056 10.2659 4.09627L9.80532 2.66873C7.42484 3.43673 5.56466 5.36325 4.90599 7.78279L6.35331 8.1768ZM6.3055 8.35245L6.35331 8.1768L4.90599 7.78279L4.85817 7.95844L6.3055 8.35245ZM6.11467 12.3485C5.88588 11.0185 5.95101 9.65459 6.3055 8.35245L4.85817 7.95844C4.44617 9.47183 4.37048 11.0571 4.63639 12.6028L6.11467 12.3485ZM6.13868 12.4881L6.11467 12.3485L4.63639 12.6028L4.66039 12.7424L6.13868 12.4881ZM4.75 15.0161C4.75 14.3982 5.0936 13.8595 5.6037 13.5825L4.88797 12.2643C3.91397 12.7931 3.25 13.8265 3.25 15.0161H4.75ZM6.0558 16.6133C5.29607 16.4592 4.75 15.7913 4.75 15.0161H3.25C3.25 16.5049 4.29869 17.7875 5.75772 18.0834L6.0558 16.6133ZM6.4479 16.6928L6.0558 16.6133L5.75772 18.0834L6.14982 18.1629L6.4479 16.6928ZM17.5521 16.6928C13.888 17.4357 10.112 17.4357 6.4479 16.6928L6.14983 18.1629C10.0107 18.9457 13.9893 18.9457 17.8502 18.1629L17.5521 16.6928ZM17.9442 16.6133L17.5521 16.6928L17.8502 18.1629L18.2423 18.0834L17.9442 16.6133ZM19.25 15.0161C19.25 15.7913 18.7039 16.4592 17.9442 16.6133L18.2423 18.0834C19.7013 17.7875 20.75 16.5049 20.75 15.0161H19.25ZM18.4116 13.591C18.9133 13.8704 19.25 14.4045 19.25 15.0161H20.75C20.75 13.8386 20.0993 12.814 19.1415 12.2805L18.4116 13.591ZM17.8914 12.3133L17.8659 12.4613L19.3442 12.7156L19.3697 12.5676L17.8914 12.3133ZM17.7193 8.37656C18.0579 9.66134 18.1166 11.0039 17.8914 12.3133L19.3697 12.5676C19.6314 11.0464 19.5632 9.48676 19.1697 7.99421L17.7193 8.37656ZM17.6527 8.124L17.7193 8.37656L19.1697 7.99421L19.1031 7.74165L17.6527 8.124ZM13.864 4.10152C15.7268 4.71385 17.1529 6.22787 17.6527 8.124L19.1031 7.74165C18.4738 5.35404 16.6781 3.44757 14.3324 2.67653L13.864 4.10152ZM10.2659 4.09627C11.4331 3.71968 12.7022 3.71963 13.864 4.10152L14.3324 2.67653C12.8657 2.1944 11.2713 2.19576 9.80532 2.66873L10.2659 4.09627ZM19.1415 12.2805C19.2766 12.3558 19.3779 12.5201 19.3442 12.7156L17.8659 12.4613C17.7843 12.9359 18.0291 13.378 18.4116 13.591L19.1415 12.2805ZM4.66039 12.7424C4.62404 12.531 4.73371 12.3481 4.88797 12.2643L5.6037 13.5825C5.97969 13.3784 6.21781 12.9481 6.13868 12.4881L4.66039 12.7424ZM11.25 2V3.06667H12.75V2H11.25ZM8.72631 18.5674C10.902 18.8109 13.098 18.8109 15.2737 18.5674L15.1069 17.0767C13.0421 17.3078 10.9579 17.3078 8.89311 17.0767L8.72631 18.5674Z" fill="black"/>
<path d="M14.05 20.2331C12.8995 21.5182 11.1048 21.5334 9.94336 20.2331" stroke="black" stroke-width="1.5" stroke-linecap="round" stroke-linejoin="round"/>
</svg>
